# xmcd
#
# Track frame offsets:
#	182
#	20240
#	42765
#	61352
#	80400
#	102355
#	122375
#	142197
#
# Disc length: 2158 seconds
#
# Revision: 0
# Processed by: cddbd v1.5.1PL0 Copyright (c) Steve Scherf et al.
# Submitted via: EasyCDDAExtractor 8.2.0.1
#
DISCID=6a086c08
DTITLE=CHARLIE CRUZ - UN CHICO MALO
DYEAR=2003
DGENRE=SALSA
TTITLE0=UN CHIN CHIN
TTITLE1=ME TIENE AFIXIAO
TTITLE2=PRUEBA CON UN BESO
TTITLE3=QUE GANAS
TTITLE4=Y TE MARCHASTE
TTITLE5=UN CHICO MALO
TTITLE6=NO ME DEJES CON LAS GANAS
TTITLE7=DICES QUE TE VAS
EXTD=
EXTT0=
EXTT1=
EXTT2=
EXTT3=
EXTT4=
EXTT5=
EXTT6=
EXTT7=
PLAYORDER=
